<svg xmlns="http://www.w3.org/2000/svg" viewBox="0 0 30 30"><defs><style>.cls-1{fill:#fff;}.cls-2{fill:#bd0a0d;}</style></defs><title>desktop-logo-MobileNEW</title><g id="Layer_4" data-name="Layer 4"><path class="cls-1" d="M0,15.29A14.83,14.83,0,0,0,14.91,30a14.55,14.55,0,0,0,11.73-6.42L2.57,7.32A15.35,15.35,0,0,0,0,15.29Z"/><path class="cls-2" d="M7.12,15.55A7.89,7.89,0,0,0,15,23.38,7.75,7.75,0,0,0,21.28,20L8.47,11.31A8.19,8.19,0,0,0,7.12,15.55Z"/><path class="cls-1" d="M15.09,0A14.55,14.55,0,0,0,3.36,6.42L9,10.25a7.73,7.73,0,0,1,6.24-3.42,7.9,7.9,0,0,1,7.91,7.83,8.07,8.07,0,0,1-1.35,4.24l5.6,3.78a15.35,15.35,0,0,0,2.53-8A14.83,14.83,0,0,0,15.09,0Z"/></g></svg>